<svg width="16" height="16" viewBox="0 0 16 16" fill="none" xmlns="http://www.w3.org/2000/svg">
<path d="M14.7353 6.332C14.8173 6.77133 14.862 7.23067 14.862 7.71C14.862 11.4593 12.3527 14.1253 8.56267 14.1253C7.70077 14.1256 6.84727 13.956 6.05093 13.6263C5.25459 13.2966 4.53103 12.8132 3.92157 12.2038C3.31212 11.5943 2.82873 10.8707 2.49902 10.0744C2.16931 9.27806 1.99974 8.42456 2 7.56267C1.99974 6.70077 2.16931 5.84727 2.49902 5.05093C2.82873 4.25459 3.31212 3.53103 3.92157 2.92157C4.53103 2.31212 5.25459 1.82873 6.05093 1.49902C6.84727 1.16931 7.70077 0.999738 8.56267 1C10.3347 1 11.8153 1.652 12.9513 2.71067L11.1013 4.56067V4.556C10.4127 3.9 9.53867 3.56333 8.56267 3.56333C6.39733 3.56333 4.63733 5.39267 4.63733 7.55867C4.63733 9.724 6.39733 11.5573 8.56267 11.5573C10.5273 11.5573 11.8647 10.434 12.1393 8.89133H8.56267V6.332H14.736H14.7353Z" fill="white"/>
</svg>
